<svg xmlns="http://www.w3.org/2000/svg" width="480" height="480" viewBox="0 0 480 480" font-family="Helvetica,Arial,sans-serif">
<rect x="0" y="0" width="480" height="480" fill="white"/>
<text x="240.0" y="22" text-anchor="middle" font-size="14" font-weight="bold" fill="black">QQ: per-question difficulty, openrouter_A (n=500)</text>
<text x="240.0" y="38" text-anchor="middle" font-size="10" fill="#555">proportion of 4 models strict_correct, per question, within arm</text>
<line x1="65" y1="425" x2="455" y2="425" stroke="black" stroke-width="1"/>
<line x1="65" y1="45" x2="65" y2="425" stroke="black" stroke-width="1"/>
<line x1="65.0" y1="425.0" x2="455.0" y2="45.0" stroke="#d33" stroke-width="1" stroke-dasharray="4,3"/>
<line x1="81.1" y1="425" x2="81.1" y2="430" stroke="black"/>
<text x="81.1" y="443.0" text-anchor="middle" font-size="9" fill="black">-4.93</text>
<line x1="60" y1="409.3" x2="65" y2="409.3" stroke="black"/>
<text x="57" y="412.3" text-anchor="end" font-size="9" fill="black">-4.93</text>
<line x1="170.6" y1="425" x2="170.6" y2="430" stroke="black"/>
<text x="170.6" y="443.0" text-anchor="middle" font-size="9" fill="black">-2.86</text>
<line x1="60" y1="322.1" x2="65" y2="322.1" stroke="black"/>
<text x="57" y="325.1" text-anchor="end" font-size="9" fill="black">-2.86</text>
<line x1="260.0" y1="425" x2="260.0" y2="430" stroke="black"/>
<text x="260.0" y="443.0" text-anchor="middle" font-size="9" fill="black">-0.79</text>
<line x1="60" y1="235.0" x2="65" y2="235.0" stroke="black"/>
<text x="57" y="238.0" text-anchor="end" font-size="9" fill="black">-0.79</text>
<line x1="349.4" y1="425" x2="349.4" y2="430" stroke="black"/>
<text x="349.4" y="443.0" text-anchor="middle" font-size="9" fill="black">1.27</text>
<line x1="60" y1="147.9" x2="65" y2="147.9" stroke="black"/>
<text x="57" y="150.9" text-anchor="end" font-size="9" fill="black">1.27</text>
<line x1="438.9" y1="425" x2="438.9" y2="430" stroke="black"/>
<text x="438.9" y="443.0" text-anchor="middle" font-size="9" fill="black">3.34</text>
<line x1="60" y1="60.7" x2="65" y2="60.7" stroke="black"/>
<text x="57" y="63.7" text-anchor="end" font-size="9" fill="black">3.34</text>
<text x="240.0" y="466" text-anchor="middle" font-size="11" fill="black">Theoretical quantiles (standard normal)</text>
<text x="14" y="240.0" text-anchor="middle" font-size="11" fill="black" transform="rotate(-90 14 240.0)">Standardized sample quantiles</text>
<circle cx="160.60" cy="398.79" r="1.7" fill="#2563eb" fill-opacity="0.55"/>
<circle cx="175.42" cy="398.79" r="1.7" fill="#2563eb" fill-opacity="0.55"/>
<circle cx="182.87" cy="343.91" r="1.7" fill="#2563eb" fill-opacity="0.55"/>
<circle cx="188.00" cy="343.91" r="1.7" fill="#2563eb" fill-opacity="0.55"/>
<circle cx="191.96" cy="343.91" r="1.7" fill="#2563eb" fill-opacity="0.55"/>
<circle cx="195.22" cy="343.91" r="1.7" fill="#2563eb" fill-opacity="0.55"/>
<circle cx="198.00" cy="343.91" r="1.7" fill="#2563eb" fill-opacity="0.55"/>
<circle cx="200.43" cy="343.91" r="1.7" fill="#2563eb" fill-opacity="0.55"/>
<circle cx="202.59" cy="343.91" r="1.7" fill="#2563eb" fill-opacity="0.55"/>
<circle cx="204.55" cy="343.91" r="1.7" fill="#2563eb" fill-opacity="0.55"/>
<circle cx="206.34" cy="343.91" r="1.7" fill="#2563eb" fill-opacity="0.55"/>
<circle cx="207.99" cy="343.91" r="1.7" fill="#2563eb" fill-opacity="0.55"/>
<circle cx="209.52" cy="343.91" r="1.7" fill="#2563eb" fill-opacity="0.55"/>
<circle cx="210.96" cy="343.91" r="1.7" fill="#2563eb" fill-opacity="0.55"/>
<circle cx="212.30" cy="343.91" r="1.7" fill="#2563eb" fill-opacity="0.55"/>
<circle cx="213.58" cy="289.02" r="1.7" fill="#2563eb" fill-opacity="0.55"/>
<circle cx="214.78" cy="289.02" r="1.7" fill="#2563eb" fill-opacity="0.55"/>
<circle cx="215.93" cy="289.02" r="1.7" fill="#2563eb" fill-opacity="0.55"/>
<circle cx="217.02" cy="289.02" r="1.7" fill="#2563eb" fill-opacity="0.55"/>
<circle cx="218.07" cy="289.02" r="1.7" fill="#2563eb" fill-opacity="0.55"/>
<circle cx="219.08" cy="289.02" r="1.7" fill="#2563eb" fill-opacity="0.55"/>
<circle cx="220.04" cy="289.02" r="1.7" fill="#2563eb" fill-opacity="0.55"/>
<circle cx="220.97" cy="289.02" r="1.7" fill="#2563eb" fill-opacity="0.55"/>
<circle cx="221.87" cy="289.02" r="1.7" fill="#2563eb" fill-opacity="0.55"/>
<circle cx="222.74" cy="289.02" r="1.7" fill="#2563eb" fill-opacity="0.55"/>
<circle cx="223.58" cy="289.02" r="1.7" fill="#2563eb" fill-opacity="0.55"/>
<circle cx="224.39" cy="289.02" r="1.7" fill="#2563eb" fill-opacity="0.55"/>
<circle cx="225.18" cy="289.02" r="1.7" fill="#2563eb" fill-opacity="0.55"/>
<circle cx="225.95" cy="289.02" r="1.7" fill="#2563eb" fill-opacity="0.55"/>
<circle cx="226.69" cy="289.02" r="1.7" fill="#2563eb" fill-opacity="0.55"/>
<circle cx="227.42" cy="289.02" r="1.7" fill="#2563eb" fill-opacity="0.55"/>
<circle cx="228.13" cy="289.02" r="1.7" fill="#2563eb" fill-opacity="0.55"/>
<circle cx="228.82" cy="289.02" r="1.7" fill="#2563eb" fill-opacity="0.55"/>
<circle cx="229.49" cy="289.02" r="1.7" fill="#2563eb" fill-opacity="0.55"/>
<circle cx="230.15" cy="289.02" r="1.7" fill="#2563eb" fill-opacity="0.55"/>
<circle cx="230.80" cy="289.02" r="1.7" fill="#2563eb" fill-opacity="0.55"/>
<circle cx="231.43" cy="289.02" r="1.7" fill="#2563eb" fill-opacity="0.55"/>
<circle cx="232.05" cy="289.02" r="1.7" fill="#2563eb" fill-opacity="0.55"/>
<circle cx="232.65" cy="289.02" r="1.7" fill="#2563eb" fill-opacity="0.55"/>
<circle cx="233.25" cy="289.02" r="1.7" fill="#2563eb" fill-opacity="0.55"/>
<circle cx="233.83" cy="289.02" r="1.7" fill="#2563eb" fill-opacity="0.55"/>
<circle cx="234.40" cy="289.02" r="1.7" fill="#2563eb" fill-opacity="0.55"/>
<circle cx="234.96" cy="289.02" r="1.7" fill="#2563eb" fill-opacity="0.55"/>
<circle cx="235.51" cy="289.02" r="1.7" fill="#2563eb" fill-opacity="0.55"/>
<circle cx="236.05" cy="289.02" r="1.7" fill="#2563eb" fill-opacity="0.55"/>
<circle cx="236.59" cy="289.02" r="1.7" fill="#2563eb" fill-opacity="0.55"/>
<circle cx="237.11" cy="289.02" r="1.7" fill="#2563eb" fill-opacity="0.55"/>
<circle cx="237.63" cy="289.02" r="1.7" fill="#2563eb" fill-opacity="0.55"/>
<circle cx="238.14" cy="289.02" r="1.7" fill="#2563eb" fill-opacity="0.55"/>
<circle cx="238.64" cy="289.02" r="1.7" fill="#2563eb" fill-opacity="0.55"/>
<circle cx="239.13" cy="289.02" r="1.7" fill="#2563eb" fill-opacity="0.55"/>
<circle cx="239.62" cy="234.13" r="1.7" fill="#2563eb" fill-opacity="0.55"/>
<circle cx="240.10" cy="234.13" r="1.7" fill="#2563eb" fill-opacity="0.55"/>
<circle cx="240.57" cy="234.13" r="1.7" fill="#2563eb" fill-opacity="0.55"/>
<circle cx="241.04" cy="234.13" r="1.7" fill="#2563eb" fill-opacity="0.55"/>
<circle cx="241.50" cy="234.13" r="1.7" fill="#2563eb" fill-opacity="0.55"/>
<circle cx="241.95" cy="234.13" r="1.7" fill="#2563eb" fill-opacity="0.55"/>
<circle cx="242.40" cy="234.13" r="1.7" fill="#2563eb" fill-opacity="0.55"/>
<circle cx="242.84" cy="234.13" r="1.7" fill="#2563eb" fill-opacity="0.55"/>
<circle cx="243.28" cy="234.13" r="1.7" fill="#2563eb" fill-opacity="0.55"/>
<circle cx="243.71" cy="234.13" r="1.7" fill="#2563eb" fill-opacity="0.55"/>
<circle cx="244.14" cy="234.13" r="1.7" fill="#2563eb" fill-opacity="0.55"/>
<circle cx="244.56" cy="234.13" r="1.7" fill="#2563eb" fill-opacity="0.55"/>
<circle cx="244.98" cy="234.13" r="1.7" fill="#2563eb" fill-opacity="0.55"/>
<circle cx="245.40" cy="234.13" r="1.7" fill="#2563eb" fill-opacity="0.55"/>
<circle cx="245.80" cy="234.13" r="1.7" fill="#2563eb" fill-opacity="0.55"/>
<circle cx="246.21" cy="234.13" r="1.7" fill="#2563eb" fill-opacity="0.55"/>
<circle cx="246.61" cy="234.13" r="1.7" fill="#2563eb" fill-opacity="0.55"/>
<circle cx="247.01" cy="234.13" r="1.7" fill="#2563eb" fill-opacity="0.55"/>
<circle cx="247.40" cy="234.13" r="1.7" fill="#2563eb" fill-opacity="0.55"/>
<circle cx="247.79" cy="234.13" r="1.7" fill="#2563eb" fill-opacity="0.55"/>
<circle cx="248.17" cy="234.13" r="1.7" fill="#2563eb" fill-opacity="0.55"/>
<circle cx="248.56" cy="234.13" r="1.7" fill="#2563eb" fill-opacity="0.55"/>
<circle cx="248.93" cy="234.13" r="1.7" fill="#2563eb" fill-opacity="0.55"/>
<circle cx="249.31" cy="234.13" r="1.7" fill="#2563eb" fill-opacity="0.55"/>
<circle cx="249.68" cy="234.13" r="1.7" fill="#2563eb" fill-opacity="0.55"/>
<circle cx="250.05" cy="234.13" r="1.7" fill="#2563eb" fill-opacity="0.55"/>
<circle cx="250.41" cy="234.13" r="1.7" fill="#2563eb" fill-opacity="0.55"/>
<circle cx="250.77" cy="234.13" r="1.7" fill="#2563eb" fill-opacity="0.55"/>
<circle cx="251.13" cy="234.13" r="1.7" fill="#2563eb" fill-opacity="0.55"/>
<circle cx="251.49" cy="234.13" r="1.7" fill="#2563eb" fill-opacity="0.55"/>
<circle cx="251.84" cy="234.13" r="1.7" fill="#2563eb" fill-opacity="0.55"/>
<circle cx="252.19" cy="234.13" r="1.7" fill="#2563eb" fill-opacity="0.55"/>
<circle cx="252.54" cy="234.13" r="1.7" fill="#2563eb" fill-opacity="0.55"/>
<circle cx="252.88" cy="234.13" r="1.7" fill="#2563eb" fill-opacity="0.55"/>
<circle cx="253.23" cy="234.13" r="1.7" fill="#2563eb" fill-opacity="0.55"/>
<circle cx="253.56" cy="234.13" r="1.7" fill="#2563eb" fill-opacity="0.55"/>
<circle cx="253.90" cy="234.13" r="1.7" fill="#2563eb" fill-opacity="0.55"/>
<circle cx="254.24" cy="234.13" r="1.7" fill="#2563eb" fill-opacity="0.55"/>
<circle cx="254.57" cy="234.13" r="1.7" fill="#2563eb" fill-opacity="0.55"/>
<circle cx="254.90" cy="234.13" r="1.7" fill="#2563eb" fill-opacity="0.55"/>
<circle cx="255.23" cy="234.13" r="1.7" fill="#2563eb" fill-opacity="0.55"/>
<circle cx="255.55" cy="234.13" r="1.7" fill="#2563eb" fill-opacity="0.55"/>
<circle cx="255.87" cy="234.13" r="1.7" fill="#2563eb" fill-opacity="0.55"/>
<circle cx="256.20" cy="234.13" r="1.7" fill="#2563eb" fill-opacity="0.55"/>
<circle cx="256.51" cy="234.13" r="1.7" fill="#2563eb" fill-opacity="0.55"/>
<circle cx="256.83" cy="234.13" r="1.7" fill="#2563eb" fill-opacity="0.55"/>
<circle cx="257.15" cy="234.13" r="1.7" fill="#2563eb" fill-opacity="0.55"/>
<circle cx="257.46" cy="234.13" r="1.7" fill="#2563eb" fill-opacity="0.55"/>
<circle cx="257.77" cy="234.13" r="1.7" fill="#2563eb" fill-opacity="0.55"/>
<circle cx="258.08" cy="234.13" r="1.7" fill="#2563eb" fill-opacity="0.55"/>
<circle cx="258.39" cy="234.13" r="1.7" fill="#2563eb" fill-opacity="0.55"/>
<circle cx="258.69" cy="234.13" r="1.7" fill="#2563eb" fill-opacity="0.55"/>
<circle cx="259.00" cy="234.13" r="1.7" fill="#2563eb" fill-opacity="0.55"/>
<circle cx="259.30" cy="234.13" r="1.7" fill="#2563eb" fill-opacity="0.55"/>
<circle cx="259.60" cy="234.13" r="1.7" fill="#2563eb" fill-opacity="0.55"/>
<circle cx="259.90" cy="234.13" r="1.7" fill="#2563eb" fill-opacity="0.55"/>
<circle cx="260.19" cy="234.13" r="1.7" fill="#2563eb" fill-opacity="0.55"/>
<circle cx="260.49" cy="234.13" r="1.7" fill="#2563eb" fill-opacity="0.55"/>
<circle cx="260.78" cy="234.13" r="1.7" fill="#2563eb" fill-opacity="0.55"/>
<circle cx="261.08" cy="234.13" r="1.7" fill="#2563eb" fill-opacity="0.55"/>
<circle cx="261.37" cy="234.13" r="1.7" fill="#2563eb" fill-opacity="0.55"/>
<circle cx="261.66" cy="234.13" r="1.7" fill="#2563eb" fill-opacity="0.55"/>
<circle cx="261.94" cy="234.13" r="1.7" fill="#2563eb" fill-opacity="0.55"/>
<circle cx="262.23" cy="234.13" r="1.7" fill="#2563eb" fill-opacity="0.55"/>
<circle cx="262.52" cy="234.13" r="1.7" fill="#2563eb" fill-opacity="0.55"/>
<circle cx="262.80" cy="234.13" r="1.7" fill="#2563eb" fill-opacity="0.55"/>
<circle cx="263.08" cy="234.13" r="1.7" fill="#2563eb" fill-opacity="0.55"/>
<circle cx="263.36" cy="234.13" r="1.7" fill="#2563eb" fill-opacity="0.55"/>
<circle cx="263.64" cy="234.13" r="1.7" fill="#2563eb" fill-opacity="0.55"/>
<circle cx="263.92" cy="234.13" r="1.7" fill="#2563eb" fill-opacity="0.55"/>
<circle cx="264.20" cy="234.13" r="1.7" fill="#2563eb" fill-opacity="0.55"/>
<circle cx="264.47" cy="234.13" r="1.7" fill="#2563eb" fill-opacity="0.55"/>
<circle cx="264.75" cy="234.13" r="1.7" fill="#2563eb" fill-opacity="0.55"/>
<circle cx="265.02" cy="234.13" r="1.7" fill="#2563eb" fill-opacity="0.55"/>
<circle cx="265.30" cy="234.13" r="1.7" fill="#2563eb" fill-opacity="0.55"/>
<circle cx="265.57" cy="234.13" r="1.7" fill="#2563eb" fill-opacity="0.55"/>
<circle cx="265.84" cy="234.13" r="1.7" fill="#2563eb" fill-opacity="0.55"/>
<circle cx="266.11" cy="234.13" r="1.7" fill="#2563eb" fill-opacity="0.55"/>
<circle cx="266.37" cy="234.13" r="1.7" fill="#2563eb" fill-opacity="0.55"/>
<circle cx="266.64" cy="234.13" r="1.7" fill="#2563eb" fill-opacity="0.55"/>
<circle cx="266.91" cy="234.13" r="1.7" fill="#2563eb" fill-opacity="0.55"/>
<circle cx="267.17" cy="234.13" r="1.7" fill="#2563eb" fill-opacity="0.55"/>
<circle cx="267.44" cy="234.13" r="1.7" fill="#2563eb" fill-opacity="0.55"/>
<circle cx="267.70" cy="234.13" r="1.7" fill="#2563eb" fill-opacity="0.55"/>
<circle cx="267.96" cy="179.24" r="1.7" fill="#2563eb" fill-opacity="0.55"/>
<circle cx="268.22" cy="179.24" r="1.7" fill="#2563eb" fill-opacity="0.55"/>
<circle cx="268.48" cy="179.24" r="1.7" fill="#2563eb" fill-opacity="0.55"/>
<circle cx="268.74" cy="179.24" r="1.7" fill="#2563eb" fill-opacity="0.55"/>
<circle cx="269.00" cy="179.24" r="1.7" fill="#2563eb" fill-opacity="0.55"/>
<circle cx="269.25" cy="179.24" r="1.7" fill="#2563eb" fill-opacity="0.55"/>
<circle cx="269.51" cy="179.24" r="1.7" fill="#2563eb" fill-opacity="0.55"/>
<circle cx="269.77" cy="179.24" r="1.7" fill="#2563eb" fill-opacity="0.55"/>
<circle cx="270.02" cy="179.24" r="1.7" fill="#2563eb" fill-opacity="0.55"/>
<circle cx="270.27" cy="179.24" r="1.7" fill="#2563eb" fill-opacity="0.55"/>
<circle cx="270.53" cy="179.24" r="1.7" fill="#2563eb" fill-opacity="0.55"/>
<circle cx="270.78" cy="179.24" r="1.7" fill="#2563eb" fill-opacity="0.55"/>
<circle cx="271.03" cy="179.24" r="1.7" fill="#2563eb" fill-opacity="0.55"/>
<circle cx="271.28" cy="179.24" r="1.7" fill="#2563eb" fill-opacity="0.55"/>
<circle cx="271.53" cy="179.24" r="1.7" fill="#2563eb" fill-opacity="0.55"/>
<circle cx="271.78" cy="179.24" r="1.7" fill="#2563eb" fill-opacity="0.55"/>
<circle cx="272.03" cy="179.24" r="1.7" fill="#2563eb" fill-opacity="0.55"/>
<circle cx="272.28" cy="179.24" r="1.7" fill="#2563eb" fill-opacity="0.55"/>
<circle cx="272.52" cy="179.24" r="1.7" fill="#2563eb" fill-opacity="0.55"/>
<circle cx="272.77" cy="179.24" r="1.7" fill="#2563eb" fill-opacity="0.55"/>
<circle cx="273.01" cy="179.24" r="1.7" fill="#2563eb" fill-opacity="0.55"/>
<circle cx="273.26" cy="179.24" r="1.7" fill="#2563eb" fill-opacity="0.55"/>
<circle cx="273.50" cy="179.24" r="1.7" fill="#2563eb" fill-opacity="0.55"/>
<circle cx="273.75" cy="179.24" r="1.7" fill="#2563eb" fill-opacity="0.55"/>
<circle cx="273.99" cy="179.24" r="1.7" fill="#2563eb" fill-opacity="0.55"/>
<circle cx="274.23" cy="179.24" r="1.7" fill="#2563eb" fill-opacity="0.55"/>
<circle cx="274.47" cy="179.24" r="1.7" fill="#2563eb" fill-opacity="0.55"/>
<circle cx="274.71" cy="179.24" r="1.7" fill="#2563eb" fill-opacity="0.55"/>
<circle cx="274.95" cy="179.24" r="1.7" fill="#2563eb" fill-opacity="0.55"/>
<circle cx="275.19" cy="179.24" r="1.7" fill="#2563eb" fill-opacity="0.55"/>
<circle cx="275.43" cy="179.24" r="1.7" fill="#2563eb" fill-opacity="0.55"/>
<circle cx="275.67" cy="179.24" r="1.7" fill="#2563eb" fill-opacity="0.55"/>
<circle cx="275.91" cy="179.24" r="1.7" fill="#2563eb" fill-opacity="0.55"/>
<circle cx="276.15" cy="179.24" r="1.7" fill="#2563eb" fill-opacity="0.55"/>
<circle cx="276.38" cy="179.24" r="1.7" fill="#2563eb" fill-opacity="0.55"/>
<circle cx="276.62" cy="179.24" r="1.7" fill="#2563eb" fill-opacity="0.55"/>
<circle cx="276.85" cy="179.24" r="1.7" fill="#2563eb" fill-opacity="0.55"/>
<circle cx="277.09" cy="179.24" r="1.7" fill="#2563eb" fill-opacity="0.55"/>
<circle cx="277.32" cy="179.24" r="1.7" fill="#2563eb" fill-opacity="0.55"/>
<circle cx="277.56" cy="179.24" r="1.7" fill="#2563eb" fill-opacity="0.55"/>
<circle cx="277.79" cy="179.24" r="1.7" fill="#2563eb" fill-opacity="0.55"/>
<circle cx="278.03" cy="179.24" r="1.7" fill="#2563eb" fill-opacity="0.55"/>
<circle cx="278.26" cy="179.24" r="1.7" fill="#2563eb" fill-opacity="0.55"/>
<circle cx="278.49" cy="179.24" r="1.7" fill="#2563eb" fill-opacity="0.55"/>
<circle cx="278.72" cy="179.24" r="1.7" fill="#2563eb" fill-opacity="0.55"/>
<circle cx="278.95" cy="179.24" r="1.7" fill="#2563eb" fill-opacity="0.55"/>
<circle cx="279.18" cy="179.24" r="1.7" fill="#2563eb" fill-opacity="0.55"/>
<circle cx="279.41" cy="179.24" r="1.7" fill="#2563eb" fill-opacity="0.55"/>
<circle cx="279.65" cy="179.24" r="1.7" fill="#2563eb" fill-opacity="0.55"/>
<circle cx="279.87" cy="179.24" r="1.7" fill="#2563eb" fill-opacity="0.55"/>
<circle cx="280.10" cy="179.24" r="1.7" fill="#2563eb" fill-opacity="0.55"/>
<circle cx="280.33" cy="179.24" r="1.7" fill="#2563eb" fill-opacity="0.55"/>
<circle cx="280.56" cy="179.24" r="1.7" fill="#2563eb" fill-opacity="0.55"/>
<circle cx="280.79" cy="179.24" r="1.7" fill="#2563eb" fill-opacity="0.55"/>
<circle cx="281.02" cy="179.24" r="1.7" fill="#2563eb" fill-opacity="0.55"/>
<circle cx="281.24" cy="179.24" r="1.7" fill="#2563eb" fill-opacity="0.55"/>
<circle cx="281.47" cy="179.24" r="1.7" fill="#2563eb" fill-opacity="0.55"/>
<circle cx="281.70" cy="179.24" r="1.7" fill="#2563eb" fill-opacity="0.55"/>
<circle cx="281.92" cy="179.24" r="1.7" fill="#2563eb" fill-opacity="0.55"/>
<circle cx="282.15" cy="179.24" r="1.7" fill="#2563eb" fill-opacity="0.55"/>
<circle cx="282.38" cy="179.24" r="1.7" fill="#2563eb" fill-opacity="0.55"/>
<circle cx="282.60" cy="179.24" r="1.7" fill="#2563eb" fill-opacity="0.55"/>
<circle cx="282.83" cy="179.24" r="1.7" fill="#2563eb" fill-opacity="0.55"/>
<circle cx="283.05" cy="179.24" r="1.7" fill="#2563eb" fill-opacity="0.55"/>
<circle cx="283.28" cy="179.24" r="1.7" fill="#2563eb" fill-opacity="0.55"/>
<circle cx="283.50" cy="179.24" r="1.7" fill="#2563eb" fill-opacity="0.55"/>
<circle cx="283.72" cy="179.24" r="1.7" fill="#2563eb" fill-opacity="0.55"/>
<circle cx="283.95" cy="179.24" r="1.7" fill="#2563eb" fill-opacity="0.55"/>
<circle cx="284.17" cy="179.24" r="1.7" fill="#2563eb" fill-opacity="0.55"/>
<circle cx="284.39" cy="179.24" r="1.7" fill="#2563eb" fill-opacity="0.55"/>
<circle cx="284.62" cy="179.24" r="1.7" fill="#2563eb" fill-opacity="0.55"/>
<circle cx="284.84" cy="179.24" r="1.7" fill="#2563eb" fill-opacity="0.55"/>
<circle cx="285.06" cy="179.24" r="1.7" fill="#2563eb" fill-opacity="0.55"/>
<circle cx="285.28" cy="179.24" r="1.7" fill="#2563eb" fill-opacity="0.55"/>
<circle cx="285.50" cy="179.24" r="1.7" fill="#2563eb" fill-opacity="0.55"/>
<circle cx="285.72" cy="179.24" r="1.7" fill="#2563eb" fill-opacity="0.55"/>
<circle cx="285.95" cy="179.24" r="1.7" fill="#2563eb" fill-opacity="0.55"/>
<circle cx="286.17" cy="179.24" r="1.7" fill="#2563eb" fill-opacity="0.55"/>
<circle cx="286.39" cy="179.24" r="1.7" fill="#2563eb" fill-opacity="0.55"/>
<circle cx="286.61" cy="179.24" r="1.7" fill="#2563eb" fill-opacity="0.55"/>
<circle cx="286.83" cy="179.24" r="1.7" fill="#2563eb" fill-opacity="0.55"/>
<circle cx="287.05" cy="179.24" r="1.7" fill="#2563eb" fill-opacity="0.55"/>
<circle cx="287.27" cy="179.24" r="1.7" fill="#2563eb" fill-opacity="0.55"/>
<circle cx="287.49" cy="179.24" r="1.7" fill="#2563eb" fill-opacity="0.55"/>
<circle cx="287.71" cy="179.24" r="1.7" fill="#2563eb" fill-opacity="0.55"/>
<circle cx="287.93" cy="179.24" r="1.7" fill="#2563eb" fill-opacity="0.55"/>
<circle cx="288.15" cy="179.24" r="1.7" fill="#2563eb" fill-opacity="0.55"/>
<circle cx="288.37" cy="179.24" r="1.7" fill="#2563eb" fill-opacity="0.55"/>
<circle cx="288.59" cy="179.24" r="1.7" fill="#2563eb" fill-opacity="0.55"/>
<circle cx="288.80" cy="179.24" r="1.7" fill="#2563eb" fill-opacity="0.55"/>
<circle cx="289.02" cy="179.24" r="1.7" fill="#2563eb" fill-opacity="0.55"/>
<circle cx="289.24" cy="179.24" r="1.7" fill="#2563eb" fill-opacity="0.55"/>
<circle cx="289.46" cy="179.24" r="1.7" fill="#2563eb" fill-opacity="0.55"/>
<circle cx="289.68" cy="179.24" r="1.7" fill="#2563eb" fill-opacity="0.55"/>
<circle cx="289.90" cy="179.24" r="1.7" fill="#2563eb" fill-opacity="0.55"/>
<circle cx="290.11" cy="179.24" r="1.7" fill="#2563eb" fill-opacity="0.55"/>
<circle cx="290.33" cy="179.24" r="1.7" fill="#2563eb" fill-opacity="0.55"/>
<circle cx="290.55" cy="179.24" r="1.7" fill="#2563eb" fill-opacity="0.55"/>
<circle cx="290.77" cy="179.24" r="1.7" fill="#2563eb" fill-opacity="0.55"/>
<circle cx="290.99" cy="179.24" r="1.7" fill="#2563eb" fill-opacity="0.55"/>
<circle cx="291.20" cy="179.24" r="1.7" fill="#2563eb" fill-opacity="0.55"/>
<circle cx="291.42" cy="179.24" r="1.7" fill="#2563eb" fill-opacity="0.55"/>
<circle cx="291.64" cy="179.24" r="1.7" fill="#2563eb" fill-opacity="0.55"/>
<circle cx="291.86" cy="179.24" r="1.7" fill="#2563eb" fill-opacity="0.55"/>
<circle cx="292.07" cy="179.24" r="1.7" fill="#2563eb" fill-opacity="0.55"/>
<circle cx="292.29" cy="179.24" r="1.7" fill="#2563eb" fill-opacity="0.55"/>
<circle cx="292.51" cy="179.24" r="1.7" fill="#2563eb" fill-opacity="0.55"/>
<circle cx="292.72" cy="179.24" r="1.7" fill="#2563eb" fill-opacity="0.55"/>
<circle cx="292.94" cy="179.24" r="1.7" fill="#2563eb" fill-opacity="0.55"/>
<circle cx="293.16" cy="179.24" r="1.7" fill="#2563eb" fill-opacity="0.55"/>
<circle cx="293.38" cy="179.24" r="1.7" fill="#2563eb" fill-opacity="0.55"/>
<circle cx="293.59" cy="179.24" r="1.7" fill="#2563eb" fill-opacity="0.55"/>
<circle cx="293.81" cy="179.24" r="1.7" fill="#2563eb" fill-opacity="0.55"/>
<circle cx="294.03" cy="179.24" r="1.7" fill="#2563eb" fill-opacity="0.55"/>
<circle cx="294.24" cy="179.24" r="1.7" fill="#2563eb" fill-opacity="0.55"/>
<circle cx="294.46" cy="179.24" r="1.7" fill="#2563eb" fill-opacity="0.55"/>
<circle cx="294.68" cy="179.24" r="1.7" fill="#2563eb" fill-opacity="0.55"/>
<circle cx="294.90" cy="179.24" r="1.7" fill="#2563eb" fill-opacity="0.55"/>
<circle cx="295.11" cy="179.24" r="1.7" fill="#2563eb" fill-opacity="0.55"/>
<circle cx="295.33" cy="179.24" r="1.7" fill="#2563eb" fill-opacity="0.55"/>
<circle cx="295.55" cy="179.24" r="1.7" fill="#2563eb" fill-opacity="0.55"/>
<circle cx="295.76" cy="179.24" r="1.7" fill="#2563eb" fill-opacity="0.55"/>
<circle cx="295.98" cy="179.24" r="1.7" fill="#2563eb" fill-opacity="0.55"/>
<circle cx="296.20" cy="179.24" r="1.7" fill="#2563eb" fill-opacity="0.55"/>
<circle cx="296.41" cy="179.24" r="1.7" fill="#2563eb" fill-opacity="0.55"/>
<circle cx="296.63" cy="179.24" r="1.7" fill="#2563eb" fill-opacity="0.55"/>
<circle cx="296.85" cy="179.24" r="1.7" fill="#2563eb" fill-opacity="0.55"/>
<circle cx="297.07" cy="179.24" r="1.7" fill="#2563eb" fill-opacity="0.55"/>
<circle cx="297.28" cy="179.24" r="1.7" fill="#2563eb" fill-opacity="0.55"/>
<circle cx="297.50" cy="179.24" r="1.7" fill="#2563eb" fill-opacity="0.55"/>
<circle cx="297.72" cy="179.24" r="1.7" fill="#2563eb" fill-opacity="0.55"/>
<circle cx="297.94" cy="179.24" r="1.7" fill="#2563eb" fill-opacity="0.55"/>
<circle cx="298.15" cy="179.24" r="1.7" fill="#2563eb" fill-opacity="0.55"/>
<circle cx="298.37" cy="179.24" r="1.7" fill="#2563eb" fill-opacity="0.55"/>
<circle cx="298.59" cy="179.24" r="1.7" fill="#2563eb" fill-opacity="0.55"/>
<circle cx="298.81" cy="179.24" r="1.7" fill="#2563eb" fill-opacity="0.55"/>
<circle cx="299.03" cy="179.24" r="1.7" fill="#2563eb" fill-opacity="0.55"/>
<circle cx="299.25" cy="179.24" r="1.7" fill="#2563eb" fill-opacity="0.55"/>
<circle cx="299.46" cy="179.24" r="1.7" fill="#2563eb" fill-opacity="0.55"/>
<circle cx="299.68" cy="179.24" r="1.7" fill="#2563eb" fill-opacity="0.55"/>
<circle cx="299.90" cy="179.24" r="1.7" fill="#2563eb" fill-opacity="0.55"/>
<circle cx="300.12" cy="179.24" r="1.7" fill="#2563eb" fill-opacity="0.55"/>
<circle cx="300.34" cy="179.24" r="1.7" fill="#2563eb" fill-opacity="0.55"/>
<circle cx="300.56" cy="179.24" r="1.7" fill="#2563eb" fill-opacity="0.55"/>
<circle cx="300.78" cy="179.24" r="1.7" fill="#2563eb" fill-opacity="0.55"/>
<circle cx="301.00" cy="179.24" r="1.7" fill="#2563eb" fill-opacity="0.55"/>
<circle cx="301.22" cy="179.24" r="1.7" fill="#2563eb" fill-opacity="0.55"/>
<circle cx="301.44" cy="179.24" r="1.7" fill="#2563eb" fill-opacity="0.55"/>
<circle cx="301.66" cy="179.24" r="1.7" fill="#2563eb" fill-opacity="0.55"/>
<circle cx="301.88" cy="179.24" r="1.7" fill="#2563eb" fill-opacity="0.55"/>
<circle cx="302.10" cy="179.24" r="1.7" fill="#2563eb" fill-opacity="0.55"/>
<circle cx="302.32" cy="179.24" r="1.7" fill="#2563eb" fill-opacity="0.55"/>
<circle cx="302.54" cy="179.24" r="1.7" fill="#2563eb" fill-opacity="0.55"/>
<circle cx="302.76" cy="179.24" r="1.7" fill="#2563eb" fill-opacity="0.55"/>
<circle cx="302.98" cy="179.24" r="1.7" fill="#2563eb" fill-opacity="0.55"/>
<circle cx="303.20" cy="179.24" r="1.7" fill="#2563eb" fill-opacity="0.55"/>
<circle cx="303.42" cy="179.24" r="1.7" fill="#2563eb" fill-opacity="0.55"/>
<circle cx="303.65" cy="179.24" r="1.7" fill="#2563eb" fill-opacity="0.55"/>
<circle cx="303.87" cy="179.24" r="1.7" fill="#2563eb" fill-opacity="0.55"/>
<circle cx="304.09" cy="179.24" r="1.7" fill="#2563eb" fill-opacity="0.55"/>
<circle cx="304.31" cy="179.24" r="1.7" fill="#2563eb" fill-opacity="0.55"/>
<circle cx="304.54" cy="179.24" r="1.7" fill="#2563eb" fill-opacity="0.55"/>
<circle cx="304.76" cy="179.24" r="1.7" fill="#2563eb" fill-opacity="0.55"/>
<circle cx="304.98" cy="179.24" r="1.7" fill="#2563eb" fill-opacity="0.55"/>
<circle cx="305.21" cy="179.24" r="1.7" fill="#2563eb" fill-opacity="0.55"/>
<circle cx="305.43" cy="179.24" r="1.7" fill="#2563eb" fill-opacity="0.55"/>
<circle cx="305.65" cy="179.24" r="1.7" fill="#2563eb" fill-opacity="0.55"/>
<circle cx="305.88" cy="179.24" r="1.7" fill="#2563eb" fill-opacity="0.55"/>
<circle cx="306.10" cy="179.24" r="1.7" fill="#2563eb" fill-opacity="0.55"/>
<circle cx="306.33" cy="179.24" r="1.7" fill="#2563eb" fill-opacity="0.55"/>
<circle cx="306.55" cy="179.24" r="1.7" fill="#2563eb" fill-opacity="0.55"/>
<circle cx="306.78" cy="179.24" r="1.7" fill="#2563eb" fill-opacity="0.55"/>
<circle cx="307.01" cy="179.24" r="1.7" fill="#2563eb" fill-opacity="0.55"/>
<circle cx="307.23" cy="179.24" r="1.7" fill="#2563eb" fill-opacity="0.55"/>
<circle cx="307.46" cy="179.24" r="1.7" fill="#2563eb" fill-opacity="0.55"/>
<circle cx="307.69" cy="179.24" r="1.7" fill="#2563eb" fill-opacity="0.55"/>
<circle cx="307.92" cy="179.24" r="1.7" fill="#2563eb" fill-opacity="0.55"/>
<circle cx="308.14" cy="179.24" r="1.7" fill="#2563eb" fill-opacity="0.55"/>
<circle cx="308.37" cy="179.24" r="1.7" fill="#2563eb" fill-opacity="0.55"/>
<circle cx="308.60" cy="179.24" r="1.7" fill="#2563eb" fill-opacity="0.55"/>
<circle cx="308.83" cy="179.24" r="1.7" fill="#2563eb" fill-opacity="0.55"/>
<circle cx="309.06" cy="179.24" r="1.7" fill="#2563eb" fill-opacity="0.55"/>
<circle cx="309.29" cy="179.24" r="1.7" fill="#2563eb" fill-opacity="0.55"/>
<circle cx="309.52" cy="179.24" r="1.7" fill="#2563eb" fill-opacity="0.55"/>
<circle cx="309.75" cy="179.24" r="1.7" fill="#2563eb" fill-opacity="0.55"/>
<circle cx="309.98" cy="179.24" r="1.7" fill="#2563eb" fill-opacity="0.55"/>
<circle cx="310.21" cy="179.24" r="1.7" fill="#2563eb" fill-opacity="0.55"/>
<circle cx="310.45" cy="179.24" r="1.7" fill="#2563eb" fill-opacity="0.55"/>
<circle cx="310.68" cy="179.24" r="1.7" fill="#2563eb" fill-opacity="0.55"/>
<circle cx="310.91" cy="179.24" r="1.7" fill="#2563eb" fill-opacity="0.55"/>
<circle cx="311.15" cy="179.24" r="1.7" fill="#2563eb" fill-opacity="0.55"/>
<circle cx="311.38" cy="179.24" r="1.7" fill="#2563eb" fill-opacity="0.55"/>
<circle cx="311.62" cy="179.24" r="1.7" fill="#2563eb" fill-opacity="0.55"/>
<circle cx="311.85" cy="179.24" r="1.7" fill="#2563eb" fill-opacity="0.55"/>
<circle cx="312.09" cy="179.24" r="1.7" fill="#2563eb" fill-opacity="0.55"/>
<circle cx="312.32" cy="179.24" r="1.7" fill="#2563eb" fill-opacity="0.55"/>
<circle cx="312.56" cy="179.24" r="1.7" fill="#2563eb" fill-opacity="0.55"/>
<circle cx="312.80" cy="179.24" r="1.7" fill="#2563eb" fill-opacity="0.55"/>
<circle cx="313.03" cy="179.24" r="1.7" fill="#2563eb" fill-opacity="0.55"/>
<circle cx="313.27" cy="179.24" r="1.7" fill="#2563eb" fill-opacity="0.55"/>
<circle cx="313.51" cy="179.24" r="1.7" fill="#2563eb" fill-opacity="0.55"/>
<circle cx="313.75" cy="179.24" r="1.7" fill="#2563eb" fill-opacity="0.55"/>
<circle cx="313.99" cy="179.24" r="1.7" fill="#2563eb" fill-opacity="0.55"/>
<circle cx="314.23" cy="179.24" r="1.7" fill="#2563eb" fill-opacity="0.55"/>
<circle cx="314.47" cy="179.24" r="1.7" fill="#2563eb" fill-opacity="0.55"/>
<circle cx="314.72" cy="179.24" r="1.7" fill="#2563eb" fill-opacity="0.55"/>
<circle cx="314.96" cy="179.24" r="1.7" fill="#2563eb" fill-opacity="0.55"/>
<circle cx="315.20" cy="179.24" r="1.7" fill="#2563eb" fill-opacity="0.55"/>
<circle cx="315.45" cy="179.24" r="1.7" fill="#2563eb" fill-opacity="0.55"/>
<circle cx="315.69" cy="179.24" r="1.7" fill="#2563eb" fill-opacity="0.55"/>
<circle cx="315.94" cy="179.24" r="1.7" fill="#2563eb" fill-opacity="0.55"/>
<circle cx="316.18" cy="179.24" r="1.7" fill="#2563eb" fill-opacity="0.55"/>
<circle cx="316.43" cy="179.24" r="1.7" fill="#2563eb" fill-opacity="0.55"/>
<circle cx="316.68" cy="179.24" r="1.7" fill="#2563eb" fill-opacity="0.55"/>
<circle cx="316.93" cy="179.24" r="1.7" fill="#2563eb" fill-opacity="0.55"/>
<circle cx="317.17" cy="179.24" r="1.7" fill="#2563eb" fill-opacity="0.55"/>
<circle cx="317.42" cy="179.24" r="1.7" fill="#2563eb" fill-opacity="0.55"/>
<circle cx="317.67" cy="179.24" r="1.7" fill="#2563eb" fill-opacity="0.55"/>
<circle cx="317.93" cy="179.24" r="1.7" fill="#2563eb" fill-opacity="0.55"/>
<circle cx="318.18" cy="179.24" r="1.7" fill="#2563eb" fill-opacity="0.55"/>
<circle cx="318.43" cy="179.24" r="1.7" fill="#2563eb" fill-opacity="0.55"/>
<circle cx="318.68" cy="179.24" r="1.7" fill="#2563eb" fill-opacity="0.55"/>
<circle cx="318.94" cy="179.24" r="1.7" fill="#2563eb" fill-opacity="0.55"/>
<circle cx="319.19" cy="179.24" r="1.7" fill="#2563eb" fill-opacity="0.55"/>
<circle cx="319.45" cy="179.24" r="1.7" fill="#2563eb" fill-opacity="0.55"/>
<circle cx="319.71" cy="179.24" r="1.7" fill="#2563eb" fill-opacity="0.55"/>
<circle cx="319.97" cy="179.24" r="1.7" fill="#2563eb" fill-opacity="0.55"/>
<circle cx="320.22" cy="179.24" r="1.7" fill="#2563eb" fill-opacity="0.55"/>
<circle cx="320.48" cy="179.24" r="1.7" fill="#2563eb" fill-opacity="0.55"/>
<circle cx="320.75" cy="179.24" r="1.7" fill="#2563eb" fill-opacity="0.55"/>
<circle cx="321.01" cy="179.24" r="1.7" fill="#2563eb" fill-opacity="0.55"/>
<circle cx="321.27" cy="179.24" r="1.7" fill="#2563eb" fill-opacity="0.55"/>
<circle cx="321.53" cy="179.24" r="1.7" fill="#2563eb" fill-opacity="0.55"/>
<circle cx="321.80" cy="179.24" r="1.7" fill="#2563eb" fill-opacity="0.55"/>
<circle cx="322.06" cy="179.24" r="1.7" fill="#2563eb" fill-opacity="0.55"/>
<circle cx="322.33" cy="179.24" r="1.7" fill="#2563eb" fill-opacity="0.55"/>
<circle cx="322.60" cy="179.24" r="1.7" fill="#2563eb" fill-opacity="0.55"/>
<circle cx="322.87" cy="179.24" r="1.7" fill="#2563eb" fill-opacity="0.55"/>
<circle cx="323.14" cy="179.24" r="1.7" fill="#2563eb" fill-opacity="0.55"/>
<circle cx="323.41" cy="179.24" r="1.7" fill="#2563eb" fill-opacity="0.55"/>
<circle cx="323.68" cy="179.24" r="1.7" fill="#2563eb" fill-opacity="0.55"/>
<circle cx="323.96" cy="179.24" r="1.7" fill="#2563eb" fill-opacity="0.55"/>
<circle cx="324.23" cy="179.24" r="1.7" fill="#2563eb" fill-opacity="0.55"/>
<circle cx="324.51" cy="179.24" r="1.7" fill="#2563eb" fill-opacity="0.55"/>
<circle cx="324.78" cy="179.24" r="1.7" fill="#2563eb" fill-opacity="0.55"/>
<circle cx="325.06" cy="179.24" r="1.7" fill="#2563eb" fill-opacity="0.55"/>
<circle cx="325.34" cy="179.24" r="1.7" fill="#2563eb" fill-opacity="0.55"/>
<circle cx="325.62" cy="179.24" r="1.7" fill="#2563eb" fill-opacity="0.55"/>
<circle cx="325.91" cy="179.24" r="1.7" fill="#2563eb" fill-opacity="0.55"/>
<circle cx="326.19" cy="179.24" r="1.7" fill="#2563eb" fill-opacity="0.55"/>
<circle cx="326.47" cy="179.24" r="1.7" fill="#2563eb" fill-opacity="0.55"/>
<circle cx="326.76" cy="179.24" r="1.7" fill="#2563eb" fill-opacity="0.55"/>
<circle cx="327.05" cy="179.24" r="1.7" fill="#2563eb" fill-opacity="0.55"/>
<circle cx="327.34" cy="179.24" r="1.7" fill="#2563eb" fill-opacity="0.55"/>
<circle cx="327.63" cy="179.24" r="1.7" fill="#2563eb" fill-opacity="0.55"/>
<circle cx="327.92" cy="179.24" r="1.7" fill="#2563eb" fill-opacity="0.55"/>
<circle cx="328.21" cy="179.24" r="1.7" fill="#2563eb" fill-opacity="0.55"/>
<circle cx="328.51" cy="179.24" r="1.7" fill="#2563eb" fill-opacity="0.55"/>
<circle cx="328.81" cy="179.24" r="1.7" fill="#2563eb" fill-opacity="0.55"/>
<circle cx="329.11" cy="179.24" r="1.7" fill="#2563eb" fill-opacity="0.55"/>
<circle cx="329.41" cy="179.24" r="1.7" fill="#2563eb" fill-opacity="0.55"/>
<circle cx="329.71" cy="179.24" r="1.7" fill="#2563eb" fill-opacity="0.55"/>
<circle cx="330.01" cy="179.24" r="1.7" fill="#2563eb" fill-opacity="0.55"/>
<circle cx="330.32" cy="179.24" r="1.7" fill="#2563eb" fill-opacity="0.55"/>
<circle cx="330.63" cy="179.24" r="1.7" fill="#2563eb" fill-opacity="0.55"/>
<circle cx="330.93" cy="179.24" r="1.7" fill="#2563eb" fill-opacity="0.55"/>
<circle cx="331.25" cy="179.24" r="1.7" fill="#2563eb" fill-opacity="0.55"/>
<circle cx="331.56" cy="179.24" r="1.7" fill="#2563eb" fill-opacity="0.55"/>
<circle cx="331.87" cy="179.24" r="1.7" fill="#2563eb" fill-opacity="0.55"/>
<circle cx="332.19" cy="179.24" r="1.7" fill="#2563eb" fill-opacity="0.55"/>
<circle cx="332.51" cy="179.24" r="1.7" fill="#2563eb" fill-opacity="0.55"/>
<circle cx="332.83" cy="179.24" r="1.7" fill="#2563eb" fill-opacity="0.55"/>
<circle cx="333.15" cy="179.24" r="1.7" fill="#2563eb" fill-opacity="0.55"/>
<circle cx="333.48" cy="179.24" r="1.7" fill="#2563eb" fill-opacity="0.55"/>
<circle cx="333.81" cy="179.24" r="1.7" fill="#2563eb" fill-opacity="0.55"/>
<circle cx="334.14" cy="179.24" r="1.7" fill="#2563eb" fill-opacity="0.55"/>
<circle cx="334.47" cy="179.24" r="1.7" fill="#2563eb" fill-opacity="0.55"/>
<circle cx="334.80" cy="179.24" r="1.7" fill="#2563eb" fill-opacity="0.55"/>
<circle cx="335.14" cy="179.24" r="1.7" fill="#2563eb" fill-opacity="0.55"/>
<circle cx="335.48" cy="179.24" r="1.7" fill="#2563eb" fill-opacity="0.55"/>
<circle cx="335.82" cy="179.24" r="1.7" fill="#2563eb" fill-opacity="0.55"/>
<circle cx="336.17" cy="179.24" r="1.7" fill="#2563eb" fill-opacity="0.55"/>
<circle cx="336.51" cy="179.24" r="1.7" fill="#2563eb" fill-opacity="0.55"/>
<circle cx="336.86" cy="179.24" r="1.7" fill="#2563eb" fill-opacity="0.55"/>
<circle cx="337.22" cy="179.24" r="1.7" fill="#2563eb" fill-opacity="0.55"/>
<circle cx="337.57" cy="179.24" r="1.7" fill="#2563eb" fill-opacity="0.55"/>
<circle cx="337.93" cy="179.24" r="1.7" fill="#2563eb" fill-opacity="0.55"/>
<circle cx="338.29" cy="179.24" r="1.7" fill="#2563eb" fill-opacity="0.55"/>
<circle cx="338.66" cy="179.24" r="1.7" fill="#2563eb" fill-opacity="0.55"/>
<circle cx="339.03" cy="179.24" r="1.7" fill="#2563eb" fill-opacity="0.55"/>
<circle cx="339.40" cy="179.24" r="1.7" fill="#2563eb" fill-opacity="0.55"/>
<circle cx="339.77" cy="179.24" r="1.7" fill="#2563eb" fill-opacity="0.55"/>
<circle cx="340.15" cy="179.24" r="1.7" fill="#2563eb" fill-opacity="0.55"/>
<circle cx="340.53" cy="179.24" r="1.7" fill="#2563eb" fill-opacity="0.55"/>
<circle cx="340.92" cy="179.24" r="1.7" fill="#2563eb" fill-opacity="0.55"/>
<circle cx="341.31" cy="179.24" r="1.7" fill="#2563eb" fill-opacity="0.55"/>
<circle cx="341.70" cy="179.24" r="1.7" fill="#2563eb" fill-opacity="0.55"/>
<circle cx="342.10" cy="179.24" r="1.7" fill="#2563eb" fill-opacity="0.55"/>
<circle cx="342.50" cy="179.24" r="1.7" fill="#2563eb" fill-opacity="0.55"/>
<circle cx="342.90" cy="179.24" r="1.7" fill="#2563eb" fill-opacity="0.55"/>
<circle cx="343.31" cy="179.24" r="1.7" fill="#2563eb" fill-opacity="0.55"/>
<circle cx="343.72" cy="179.24" r="1.7" fill="#2563eb" fill-opacity="0.55"/>
<circle cx="344.14" cy="179.24" r="1.7" fill="#2563eb" fill-opacity="0.55"/>
<circle cx="344.56" cy="179.24" r="1.7" fill="#2563eb" fill-opacity="0.55"/>
<circle cx="344.99" cy="179.24" r="1.7" fill="#2563eb" fill-opacity="0.55"/>
<circle cx="345.43" cy="179.24" r="1.7" fill="#2563eb" fill-opacity="0.55"/>
<circle cx="345.86" cy="179.24" r="1.7" fill="#2563eb" fill-opacity="0.55"/>
<circle cx="346.31" cy="179.24" r="1.7" fill="#2563eb" fill-opacity="0.55"/>
<circle cx="346.76" cy="179.24" r="1.7" fill="#2563eb" fill-opacity="0.55"/>
<circle cx="347.21" cy="179.24" r="1.7" fill="#2563eb" fill-opacity="0.55"/>
<circle cx="347.67" cy="179.24" r="1.7" fill="#2563eb" fill-opacity="0.55"/>
<circle cx="348.14" cy="179.24" r="1.7" fill="#2563eb" fill-opacity="0.55"/>
<circle cx="348.61" cy="179.24" r="1.7" fill="#2563eb" fill-opacity="0.55"/>
<circle cx="349.09" cy="179.24" r="1.7" fill="#2563eb" fill-opacity="0.55"/>
<circle cx="349.57" cy="179.24" r="1.7" fill="#2563eb" fill-opacity="0.55"/>
<circle cx="350.07" cy="179.24" r="1.7" fill="#2563eb" fill-opacity="0.55"/>
<circle cx="350.57" cy="179.24" r="1.7" fill="#2563eb" fill-opacity="0.55"/>
<circle cx="351.08" cy="179.24" r="1.7" fill="#2563eb" fill-opacity="0.55"/>
<circle cx="351.59" cy="179.24" r="1.7" fill="#2563eb" fill-opacity="0.55"/>
<circle cx="352.12" cy="179.24" r="1.7" fill="#2563eb" fill-opacity="0.55"/>
<circle cx="352.65" cy="179.24" r="1.7" fill="#2563eb" fill-opacity="0.55"/>
<circle cx="353.19" cy="179.24" r="1.7" fill="#2563eb" fill-opacity="0.55"/>
<circle cx="353.74" cy="179.24" r="1.7" fill="#2563eb" fill-opacity="0.55"/>
<circle cx="354.31" cy="179.24" r="1.7" fill="#2563eb" fill-opacity="0.55"/>
<circle cx="354.88" cy="179.24" r="1.7" fill="#2563eb" fill-opacity="0.55"/>
<circle cx="355.46" cy="179.24" r="1.7" fill="#2563eb" fill-opacity="0.55"/>
<circle cx="356.05" cy="179.24" r="1.7" fill="#2563eb" fill-opacity="0.55"/>
<circle cx="356.66" cy="179.24" r="1.7" fill="#2563eb" fill-opacity="0.55"/>
<circle cx="357.28" cy="179.24" r="1.7" fill="#2563eb" fill-opacity="0.55"/>
<circle cx="357.91" cy="179.24" r="1.7" fill="#2563eb" fill-opacity="0.55"/>
<circle cx="358.55" cy="179.24" r="1.7" fill="#2563eb" fill-opacity="0.55"/>
<circle cx="359.21" cy="179.24" r="1.7" fill="#2563eb" fill-opacity="0.55"/>
<circle cx="359.89" cy="179.24" r="1.7" fill="#2563eb" fill-opacity="0.55"/>
<circle cx="360.58" cy="179.24" r="1.7" fill="#2563eb" fill-opacity="0.55"/>
<circle cx="361.29" cy="179.24" r="1.7" fill="#2563eb" fill-opacity="0.55"/>
<circle cx="362.01" cy="179.24" r="1.7" fill="#2563eb" fill-opacity="0.55"/>
<circle cx="362.76" cy="179.24" r="1.7" fill="#2563eb" fill-opacity="0.55"/>
<circle cx="363.53" cy="179.24" r="1.7" fill="#2563eb" fill-opacity="0.55"/>
<circle cx="364.31" cy="179.24" r="1.7" fill="#2563eb" fill-opacity="0.55"/>
<circle cx="365.13" cy="179.24" r="1.7" fill="#2563eb" fill-opacity="0.55"/>
<circle cx="365.97" cy="179.24" r="1.7" fill="#2563eb" fill-opacity="0.55"/>
<circle cx="366.84" cy="179.24" r="1.7" fill="#2563eb" fill-opacity="0.55"/>
<circle cx="367.73" cy="179.24" r="1.7" fill="#2563eb" fill-opacity="0.55"/>
<circle cx="368.66" cy="179.24" r="1.7" fill="#2563eb" fill-opacity="0.55"/>
<circle cx="369.63" cy="179.24" r="1.7" fill="#2563eb" fill-opacity="0.55"/>
<circle cx="370.63" cy="179.24" r="1.7" fill="#2563eb" fill-opacity="0.55"/>
<circle cx="371.68" cy="179.24" r="1.7" fill="#2563eb" fill-opacity="0.55"/>
<circle cx="372.78" cy="179.24" r="1.7" fill="#2563eb" fill-opacity="0.55"/>
<circle cx="373.92" cy="179.24" r="1.7" fill="#2563eb" fill-opacity="0.55"/>
<circle cx="375.13" cy="179.24" r="1.7" fill="#2563eb" fill-opacity="0.55"/>
<circle cx="376.40" cy="179.24" r="1.7" fill="#2563eb" fill-opacity="0.55"/>
<circle cx="377.75" cy="179.24" r="1.7" fill="#2563eb" fill-opacity="0.55"/>
<circle cx="379.18" cy="179.24" r="1.7" fill="#2563eb" fill-opacity="0.55"/>
<circle cx="380.72" cy="179.24" r="1.7" fill="#2563eb" fill-opacity="0.55"/>
<circle cx="382.37" cy="179.24" r="1.7" fill="#2563eb" fill-opacity="0.55"/>
<circle cx="384.16" cy="179.24" r="1.7" fill="#2563eb" fill-opacity="0.55"/>
<circle cx="386.11" cy="179.24" r="1.7" fill="#2563eb" fill-opacity="0.55"/>
<circle cx="388.28" cy="179.24" r="1.7" fill="#2563eb" fill-opacity="0.55"/>
<circle cx="390.71" cy="179.24" r="1.7" fill="#2563eb" fill-opacity="0.55"/>
<circle cx="393.48" cy="179.24" r="1.7" fill="#2563eb" fill-opacity="0.55"/>
<circle cx="396.74" cy="179.24" r="1.7" fill="#2563eb" fill-opacity="0.55"/>
<circle cx="400.71" cy="179.24" r="1.7" fill="#2563eb" fill-opacity="0.55"/>
<circle cx="405.84" cy="179.24" r="1.7" fill="#2563eb" fill-opacity="0.55"/>
<circle cx="413.28" cy="179.24" r="1.7" fill="#2563eb" fill-opacity="0.55"/>
<circle cx="428.10" cy="179.24" r="1.7" fill="#2563eb" fill-opacity="0.55"/>
<text x="455" y="35" text-anchor="end" font-size="9" fill="black">n=500</text>
</svg>